<?xml version="1.0" encoding="UTF-8" standalone="no"?>
<svg
   xmlns:dc="http://purl.org/dc/elements/1.1/"
   xmlns:cc="http://creativecommons.org/ns#"
   xmlns:rdf="http://www.w3.org/1999/02/22-rdf-syntax-ns#"
   xmlns:svg="http://www.w3.org/2000/svg"
   xmlns="http://www.w3.org/2000/svg"
   viewBox="0 0 672.79999 714.53339"
   height="714.53339"
   width="672.79999"
   xml:space="preserve"
   id="svg28"
   version="1.1"><metadata
     id="metadata34"><rdf:RDF><cc:Work
         rdf:about=""><dc:format>image/svg+xml</dc:format><dc:type
           rdf:resource="http://purl.org/dc/dcmitype/StillImage" /><dc:title></dc:title></cc:Work></rdf:RDF></metadata><defs
     id="defs32" /><g
     transform="matrix(1.3333333,0,0,-1.3333333,0,714.53337)"
     id="g36"><g
       id="g38"><path
         id="path40"
         style="fill:#ffffff;fill-opacity:1;fill-rule:evenodd;stroke:none"
         d="M 252.301,0.002 H 0 V 535.9 H 504.602 V 0.002 Z" /><path
         id="path42"
         style="fill:none;stroke:#b3b3b3;stroke-width:0.8;stroke-linecap:butt;stroke-linejoin:round;stroke-miterlimit:10;stroke-dasharray:none;stroke-opacity:1"
         d="M 187.398,116.9 H 39.898 V 525.201 H 335 V 116.9 Z" /><path
         id="path44"
         style="fill:none;stroke:#b3b3b3;stroke-width:0.8;stroke-linecap:butt;stroke-linejoin:round;stroke-miterlimit:10;stroke-dasharray:none;stroke-opacity:1"
         d="M 335,116.9 H 39.898" /><path
         id="path46"
         style="fill:none;stroke:#b3b3b3;stroke-width:0.8;stroke-linecap:butt;stroke-linejoin:round;stroke-miterlimit:10;stroke-dasharray:none;stroke-opacity:1"
         d="M 335,162.298 H 39.898" /><path
         id="path48"
         style="fill:none;stroke:#b3b3b3;stroke-width:0.8;stroke-linecap:butt;stroke-linejoin:round;stroke-miterlimit:10;stroke-dasharray:none;stroke-opacity:1"
         d="M 335,207.701 H 39.898" /><path
         id="path50"
         style="fill:none;stroke:#b3b3b3;stroke-width:0.8;stroke-linecap:butt;stroke-linejoin:round;stroke-miterlimit:10;stroke-dasharray:none;stroke-opacity:1"
         d="M 335,253.099 H 39.898" /><path
         id="path52"
         style="fill:none;stroke:#b3b3b3;stroke-width:0.8;stroke-linecap:butt;stroke-linejoin:round;stroke-miterlimit:10;stroke-dasharray:none;stroke-opacity:1"
         d="M 335,298.4 H 39.898" /><path
         id="path54"
         style="fill:none;stroke:#b3b3b3;stroke-width:0.8;stroke-linecap:butt;stroke-linejoin:round;stroke-miterlimit:10;stroke-dasharray:none;stroke-opacity:1"
         d="M 335,343.798 H 39.898" /><path
         id="path56"
         style="fill:none;stroke:#b3b3b3;stroke-width:0.8;stroke-linecap:butt;stroke-linejoin:round;stroke-miterlimit:10;stroke-dasharray:none;stroke-opacity:1"
         d="M 335,389.099 H 39.898" /><path
         id="path58"
         style="fill:none;stroke:#b3b3b3;stroke-width:0.8;stroke-linecap:butt;stroke-linejoin:round;stroke-miterlimit:10;stroke-dasharray:none;stroke-opacity:1"
         d="M 335,434.502 H 39.898" /><path
         id="path60"
         style="fill:none;stroke:#b3b3b3;stroke-width:0.8;stroke-linecap:butt;stroke-linejoin:round;stroke-miterlimit:10;stroke-dasharray:none;stroke-opacity:1"
         d="M 335,479.9 H 39.898" /><path
         id="path62"
         style="fill:none;stroke:#b3b3b3;stroke-width:0.8;stroke-linecap:butt;stroke-linejoin:round;stroke-miterlimit:10;stroke-dasharray:none;stroke-opacity:1"
         d="M 335,525.201 H 39.898" /><path
         id="path64"
         style="fill:none;stroke:#b3b3b3;stroke-width:0.8;stroke-linecap:butt;stroke-linejoin:round;stroke-miterlimit:10;stroke-dasharray:none;stroke-opacity:1"
         d="M 39.898,112.701 V 116.9" /><path
         id="path66"
         style="fill:none;stroke:#b3b3b3;stroke-width:0.8;stroke-linecap:butt;stroke-linejoin:round;stroke-miterlimit:10;stroke-dasharray:none;stroke-opacity:1"
         d="M 39.898,112.701 V 116.9" /><path
         id="path68"
         style="fill:none;stroke:#b3b3b3;stroke-width:0.8;stroke-linecap:butt;stroke-linejoin:round;stroke-miterlimit:10;stroke-dasharray:none;stroke-opacity:1"
         d="M 59.5,112.701 V 116.9" /><path
         id="path70"
         style="fill:none;stroke:#b3b3b3;stroke-width:0.8;stroke-linecap:butt;stroke-linejoin:round;stroke-miterlimit:10;stroke-dasharray:none;stroke-opacity:1"
         d="M 59.5,112.701 V 116.9" /><path
         id="path72"
         style="fill:none;stroke:#b3b3b3;stroke-width:0.8;stroke-linecap:butt;stroke-linejoin:round;stroke-miterlimit:10;stroke-dasharray:none;stroke-opacity:1"
         d="M 79.199,112.701 V 116.9" /><path
         id="path74"
         style="fill:none;stroke:#b3b3b3;stroke-width:0.8;stroke-linecap:butt;stroke-linejoin:round;stroke-miterlimit:10;stroke-dasharray:none;stroke-opacity:1"
         d="M 79.199,112.701 V 116.9" /><path
         id="path76"
         style="fill:none;stroke:#b3b3b3;stroke-width:0.8;stroke-linecap:butt;stroke-linejoin:round;stroke-miterlimit:10;stroke-dasharray:none;stroke-opacity:1"
         d="M 98.898,112.701 V 116.9" /><path
         id="path78"
         style="fill:none;stroke:#b3b3b3;stroke-width:0.8;stroke-linecap:butt;stroke-linejoin:round;stroke-miterlimit:10;stroke-dasharray:none;stroke-opacity:1"
         d="M 98.898,112.701 V 116.9" /><path
         id="path80"
         style="fill:none;stroke:#b3b3b3;stroke-width:0.8;stroke-linecap:butt;stroke-linejoin:round;stroke-miterlimit:10;stroke-dasharray:none;stroke-opacity:1"
         d="M 118.602,112.701 V 116.9" /><path
         id="path82"
         style="fill:none;stroke:#b3b3b3;stroke-width:0.8;stroke-linecap:butt;stroke-linejoin:round;stroke-miterlimit:10;stroke-dasharray:none;stroke-opacity:1"
         d="M 118.602,112.701 V 116.9" /><path
         id="path84"
         style="fill:none;stroke:#b3b3b3;stroke-width:0.8;stroke-linecap:butt;stroke-linejoin:round;stroke-miterlimit:10;stroke-dasharray:none;stroke-opacity:1"
         d="M 138.199,112.701 V 116.9" /><path
         id="path86"
         style="fill:none;stroke:#b3b3b3;stroke-width:0.8;stroke-linecap:butt;stroke-linejoin:round;stroke-miterlimit:10;stroke-dasharray:none;stroke-opacity:1"
         d="M 138.199,112.701 V 116.9" /><path
         id="path88"
         style="fill:none;stroke:#b3b3b3;stroke-width:0.8;stroke-linecap:butt;stroke-linejoin:round;stroke-miterlimit:10;stroke-dasharray:none;stroke-opacity:1"
         d="M 157.898,112.701 V 116.9" /><path
         id="path90"
         style="fill:none;stroke:#b3b3b3;stroke-width:0.8;stroke-linecap:butt;stroke-linejoin:round;stroke-miterlimit:10;stroke-dasharray:none;stroke-opacity:1"
         d="M 157.898,112.701 V 116.9" /><path
         id="path92"
         style="fill:none;stroke:#b3b3b3;stroke-width:0.8;stroke-linecap:butt;stroke-linejoin:round;stroke-miterlimit:10;stroke-dasharray:none;stroke-opacity:1"
         d="M 177.602,112.701 V 116.9" /><path
         id="path94"
         style="fill:none;stroke:#b3b3b3;stroke-width:0.8;stroke-linecap:butt;stroke-linejoin:round;stroke-miterlimit:10;stroke-dasharray:none;stroke-opacity:1"
         d="M 177.602,112.701 V 116.9" /><path
         id="path96"
         style="fill:none;stroke:#b3b3b3;stroke-width:0.8;stroke-linecap:butt;stroke-linejoin:round;stroke-miterlimit:10;stroke-dasharray:none;stroke-opacity:1"
         d="M 197.301,112.701 V 116.9" /><path
         id="path98"
         style="fill:none;stroke:#b3b3b3;stroke-width:0.8;stroke-linecap:butt;stroke-linejoin:round;stroke-miterlimit:10;stroke-dasharray:none;stroke-opacity:1"
         d="M 197.301,112.701 V 116.9" /><path
         id="path100"
         style="fill:none;stroke:#b3b3b3;stroke-width:0.8;stroke-linecap:butt;stroke-linejoin:round;stroke-miterlimit:10;stroke-dasharray:none;stroke-opacity:1"
         d="M 217,112.701 V 116.9" /><path
         id="path102"
         style="fill:none;stroke:#b3b3b3;stroke-width:0.8;stroke-linecap:butt;stroke-linejoin:round;stroke-miterlimit:10;stroke-dasharray:none;stroke-opacity:1"
         d="M 217,112.701 V 116.9" /><path
         id="path104"
         style="fill:none;stroke:#b3b3b3;stroke-width:0.8;stroke-linecap:butt;stroke-linejoin:round;stroke-miterlimit:10;stroke-dasharray:none;stroke-opacity:1"
         d="M 236.602,112.701 V 116.9" /><path
         id="path106"
         style="fill:none;stroke:#b3b3b3;stroke-width:0.8;stroke-linecap:butt;stroke-linejoin:round;stroke-miterlimit:10;stroke-dasharray:none;stroke-opacity:1"
         d="M 236.602,112.701 V 116.9" /><path
         id="path108"
         style="fill:none;stroke:#b3b3b3;stroke-width:0.8;stroke-linecap:butt;stroke-linejoin:round;stroke-miterlimit:10;stroke-dasharray:none;stroke-opacity:1"
         d="M 256.301,112.701 V 116.9" /><path
         id="path110"
         style="fill:none;stroke:#b3b3b3;stroke-width:0.8;stroke-linecap:butt;stroke-linejoin:round;stroke-miterlimit:10;stroke-dasharray:none;stroke-opacity:1"
         d="M 256.301,112.701 V 116.9" /><path
         id="path112"
         style="fill:none;stroke:#b3b3b3;stroke-width:0.8;stroke-linecap:butt;stroke-linejoin:round;stroke-miterlimit:10;stroke-dasharray:none;stroke-opacity:1"
         d="M 276,112.701 V 116.9" /><path
         id="path114"
         style="fill:none;stroke:#b3b3b3;stroke-width:0.8;stroke-linecap:butt;stroke-linejoin:round;stroke-miterlimit:10;stroke-dasharray:none;stroke-opacity:1"
         d="M 276,112.701 V 116.9" /><path
         id="path116"
         style="fill:none;stroke:#b3b3b3;stroke-width:0.8;stroke-linecap:butt;stroke-linejoin:round;stroke-miterlimit:10;stroke-dasharray:none;stroke-opacity:1"
         d="M 295.602,112.701 V 116.9" /><path
         id="path118"
         style="fill:none;stroke:#b3b3b3;stroke-width:0.8;stroke-linecap:butt;stroke-linejoin:round;stroke-miterlimit:10;stroke-dasharray:none;stroke-opacity:1"
         d="M 295.602,112.701 V 116.9" /><path
         id="path120"
         style="fill:none;stroke:#b3b3b3;stroke-width:0.8;stroke-linecap:butt;stroke-linejoin:round;stroke-miterlimit:10;stroke-dasharray:none;stroke-opacity:1"
         d="M 315.301,112.701 V 116.9" /><path
         id="path122"
         style="fill:none;stroke:#b3b3b3;stroke-width:0.8;stroke-linecap:butt;stroke-linejoin:round;stroke-miterlimit:10;stroke-dasharray:none;stroke-opacity:1"
         d="M 315.301,112.701 V 116.9" /><path
         id="path124"
         style="fill:none;stroke:#b3b3b3;stroke-width:0.8;stroke-linecap:butt;stroke-linejoin:round;stroke-miterlimit:10;stroke-dasharray:none;stroke-opacity:1"
         d="M 335,112.701 V 116.9" /><path
         id="path126"
         style="fill:none;stroke:#b3b3b3;stroke-width:0.8;stroke-linecap:butt;stroke-linejoin:round;stroke-miterlimit:10;stroke-dasharray:none;stroke-opacity:1"
         d="M 335,112.701 V 116.9" /><path
         id="path128"
         style="fill:none;stroke:#b3b3b3;stroke-width:0.8;stroke-linecap:butt;stroke-linejoin:round;stroke-miterlimit:10;stroke-dasharray:none;stroke-opacity:1"
         d="M 39.898,116.9 H 335" /><path
         id="path130"
         style="fill:none;stroke:#b3b3b3;stroke-width:0.8;stroke-linecap:butt;stroke-linejoin:round;stroke-miterlimit:10;stroke-dasharray:none;stroke-opacity:1"
         d="m 35.602,116.9 h 4.296" /><path
         id="path132"
         style="fill:none;stroke:#b3b3b3;stroke-width:0.8;stroke-linecap:butt;stroke-linejoin:round;stroke-miterlimit:10;stroke-dasharray:none;stroke-opacity:1"
         d="m 35.602,116.9 h 4.296" /><path
         id="path134"
         style="fill:none;stroke:#b3b3b3;stroke-width:0.8;stroke-linecap:butt;stroke-linejoin:round;stroke-miterlimit:10;stroke-dasharray:none;stroke-opacity:1"
         d="m 35.602,162.298 h 4.296" /><path
         id="path136"
         style="fill:none;stroke:#b3b3b3;stroke-width:0.8;stroke-linecap:butt;stroke-linejoin:round;stroke-miterlimit:10;stroke-dasharray:none;stroke-opacity:1"
         d="m 35.602,162.298 h 4.296" /><path
         id="path138"
         style="fill:none;stroke:#b3b3b3;stroke-width:0.8;stroke-linecap:butt;stroke-linejoin:round;stroke-miterlimit:10;stroke-dasharray:none;stroke-opacity:1"
         d="m 35.602,207.701 h 4.296" /><path
         id="path140"
         style="fill:none;stroke:#b3b3b3;stroke-width:0.8;stroke-linecap:butt;stroke-linejoin:round;stroke-miterlimit:10;stroke-dasharray:none;stroke-opacity:1"
         d="m 35.602,207.701 h 4.296" /><path
         id="path142"
         style="fill:none;stroke:#b3b3b3;stroke-width:0.8;stroke-linecap:butt;stroke-linejoin:round;stroke-miterlimit:10;stroke-dasharray:none;stroke-opacity:1"
         d="m 35.602,253.099 h 4.296" /><path
         id="path144"
         style="fill:none;stroke:#b3b3b3;stroke-width:0.8;stroke-linecap:butt;stroke-linejoin:round;stroke-miterlimit:10;stroke-dasharray:none;stroke-opacity:1"
         d="m 35.602,253.099 h 4.296" /><path
         id="path146"
         style="fill:none;stroke:#b3b3b3;stroke-width:0.8;stroke-linecap:butt;stroke-linejoin:round;stroke-miterlimit:10;stroke-dasharray:none;stroke-opacity:1"
         d="m 35.602,298.4 h 4.296" /><path
         id="path148"
         style="fill:none;stroke:#b3b3b3;stroke-width:0.8;stroke-linecap:butt;stroke-linejoin:round;stroke-miterlimit:10;stroke-dasharray:none;stroke-opacity:1"
         d="m 35.602,298.4 h 4.296" /><path
         id="path150"
         style="fill:none;stroke:#b3b3b3;stroke-width:0.8;stroke-linecap:butt;stroke-linejoin:round;stroke-miterlimit:10;stroke-dasharray:none;stroke-opacity:1"
         d="m 35.602,343.798 h 4.296" /><path
         id="path152"
         style="fill:none;stroke:#b3b3b3;stroke-width:0.8;stroke-linecap:butt;stroke-linejoin:round;stroke-miterlimit:10;stroke-dasharray:none;stroke-opacity:1"
         d="m 35.602,343.798 h 4.296" /><path
         id="path154"
         style="fill:none;stroke:#b3b3b3;stroke-width:0.8;stroke-linecap:butt;stroke-linejoin:round;stroke-miterlimit:10;stroke-dasharray:none;stroke-opacity:1"
         d="m 35.602,389.099 h 4.296" /><path
         id="path156"
         style="fill:none;stroke:#b3b3b3;stroke-width:0.8;stroke-linecap:butt;stroke-linejoin:round;stroke-miterlimit:10;stroke-dasharray:none;stroke-opacity:1"
         d="m 35.602,389.099 h 4.296" /><path
         id="path158"
         style="fill:none;stroke:#b3b3b3;stroke-width:0.8;stroke-linecap:butt;stroke-linejoin:round;stroke-miterlimit:10;stroke-dasharray:none;stroke-opacity:1"
         d="m 35.602,434.502 h 4.296" /><path
         id="path160"
         style="fill:none;stroke:#b3b3b3;stroke-width:0.8;stroke-linecap:butt;stroke-linejoin:round;stroke-miterlimit:10;stroke-dasharray:none;stroke-opacity:1"
         d="m 35.602,434.502 h 4.296" /><path
         id="path162"
         style="fill:none;stroke:#b3b3b3;stroke-width:0.8;stroke-linecap:butt;stroke-linejoin:round;stroke-miterlimit:10;stroke-dasharray:none;stroke-opacity:1"
         d="m 35.602,479.9 h 4.296" /><path
         id="path164"
         style="fill:none;stroke:#b3b3b3;stroke-width:0.8;stroke-linecap:butt;stroke-linejoin:round;stroke-miterlimit:10;stroke-dasharray:none;stroke-opacity:1"
         d="m 35.602,479.9 h 4.296" /><path
         id="path166"
         style="fill:none;stroke:#b3b3b3;stroke-width:0.8;stroke-linecap:butt;stroke-linejoin:round;stroke-miterlimit:10;stroke-dasharray:none;stroke-opacity:1"
         d="m 35.602,525.201 h 4.296" /><path
         id="path168"
         style="fill:none;stroke:#b3b3b3;stroke-width:0.8;stroke-linecap:butt;stroke-linejoin:round;stroke-miterlimit:10;stroke-dasharray:none;stroke-opacity:1"
         d="m 35.602,525.201 h 4.296" /><path
         id="path170"
         style="fill:none;stroke:#b3b3b3;stroke-width:0.8;stroke-linecap:butt;stroke-linejoin:round;stroke-miterlimit:10;stroke-dasharray:none;stroke-opacity:1"
         d="M 39.898,116.9 V 525.201" /><path
         id="path172"
         style="fill:none;stroke:#004586;stroke-width:2.26387;stroke-linecap:butt;stroke-linejoin:round;stroke-miterlimit:10;stroke-dasharray:none;stroke-opacity:1"
         d="m 39.898,214.099 19.602,4.301 19.699,-3.5 19.699,3.699 19.704,2 19.699,4.903 19.597,-18.204 19.704,15 19.699,7.301 19.699,0.301 19.602,-18.398 19.699,4.597 19.699,13.699 19.602,-1.699 19.699,-4.898 19.699,-9.102" /><path
         id="path174"
         style="fill:none;stroke:#ff420e;stroke-width:2.26387;stroke-linecap:butt;stroke-linejoin:round;stroke-miterlimit:10;stroke-dasharray:none;stroke-opacity:1"
         d="m 39.898,275.701 19.602,6 19.699,-5.801 19.699,6.898 19.704,7.704 19.699,-8.204 19.597,-10 19.704,13.903 19.699,6.699 19.699,-2.301 19.602,-13.5 19.699,3.699 19.699,11.704 19.602,-1.204 19.699,-2 L 335,275.701" /><path
         id="path176"
         style="fill:none;stroke:#ffd320;stroke-width:2.26387;stroke-linecap:butt;stroke-linejoin:round;stroke-miterlimit:10;stroke-dasharray:none;stroke-opacity:1"
         d="M 39.898,159.201 H 59.5 l 19.699,-0.903 19.699,3.204 19.704,2.199 19.699,4.801 19.597,-14.102 19.704,13.602 19.699,1.296 19.699,-1.199 19.602,-9.699 19.699,10 19.699,2.5 19.602,-0.5 19.699,-3.398 19.699,-7.801" /><path
         id="path178"
         style="fill:none;stroke:#579d1c;stroke-width:2.26387;stroke-linecap:butt;stroke-linejoin:round;stroke-miterlimit:10;stroke-dasharray:none;stroke-opacity:1"
         d="m 39.898,275.701 19.602,6 19.699,-5.801 19.699,6.898 19.704,7.704 19.699,-8.204 19.597,-10 19.704,13.903 19.699,6.699 19.699,-2.301 19.602,-13.5 19.699,3.699 19.699,11.704 19.602,-1.204 19.699,-2 L 335,275.701" /><path
         id="path180"
         style="fill:none;stroke:#7e0021;stroke-width:2.26387;stroke-linecap:butt;stroke-linejoin:round;stroke-miterlimit:10;stroke-dasharray:none;stroke-opacity:1"
         d="m 39.898,161.298 19.602,0.801 19.699,1.199 19.699,0.903 19.704,0.801 19.699,5 19.597,-13 19.704,11.398 19.699,2.898 19.699,-0.898 19.602,-10.5 19.699,8.602 19.699,4 19.602,-1.903 19.699,-3.097 19.699,-6.204" /><path
         id="path182"
         style="fill:none;stroke:#83caff;stroke-width:2.26387;stroke-linecap:butt;stroke-linejoin:round;stroke-miterlimit:10;stroke-dasharray:none;stroke-opacity:1"
         d="M 39.898,145.099 59.5,144.701 h 19.699 l 19.699,1.301 19.704,2.597 19.699,3.5 19.597,-10.301 19.704,9.801 19.699,-0.398 19.699,-1 19.602,-5.903 19.699,7.102 19.699,1.602 19.602,-0.5 19.699,-1.704 19.699,-5.699" /><path
         id="path184"
         style="fill:none;stroke:#314004;stroke-width:2.26387;stroke-linecap:butt;stroke-linejoin:round;stroke-miterlimit:10;stroke-dasharray:none;stroke-opacity:1"
         d="m 39.898,342.701 19.602,8.398 19.699,-1.801 19.699,-8.398 19.704,18.898 19.699,3.5 19.597,-23.199 19.704,27.403 19.699,6.296 19.699,-11.699 19.602,-21.898 19.699,34 19.699,1.097 19.602,-1.296 19.699,-4.204 L 335,342.701" /><path
         id="path186"
         style="fill:none;stroke:#aecf00;stroke-width:2.26387;stroke-linecap:butt;stroke-linejoin:round;stroke-miterlimit:10;stroke-dasharray:none;stroke-opacity:1"
         d="m 39.898,158.9 19.602,39.602 19.699,6 19.699,3.097 19.704,-3.898 19.699,3.199 19.597,44.199 19.704,14.699 19.699,-85.699 19.699,-5.597 19.602,79.597 19.699,11.699 19.699,-82.5 19.602,-4.5 19.699,20.903 L 335,158.9" /><path
         id="path188"
         style="fill:none;stroke:#4b1f6f;stroke-width:2.26387;stroke-linecap:butt;stroke-linejoin:round;stroke-miterlimit:10;stroke-dasharray:none;stroke-opacity:1"
         d="m 39.898,208.798 19.602,100.403 19.699,7.398 19.699,-6.699 19.704,1.699 19.699,7.199 19.597,65.602 19.704,5.5 19.699,-137.898 19.699,-11.704 19.602,152.301 19.699,3.602 L 276,260.798 295.602,248.9 315.301,285.701 335,208.798" /><path
         id="path190"
         style="fill:none;stroke:#ff950e;stroke-width:2.26387;stroke-linecap:butt;stroke-linejoin:round;stroke-miterlimit:10;stroke-dasharray:none;stroke-opacity:1"
         d="m 39.898,204.298 19.602,2.602 19.699,-1.398 19.699,1.699 19.704,28.199 19.699,2.102 19.597,-37.204 19.704,22.801 19.699,14 19.699,-1 19.602,-33.597 19.699,20.5 19.699,9.199 19.602,2.699 19.699,-0.199 L 335,204.298" /><path
         id="path192"
         style="fill:none;stroke:#c5000b;stroke-width:2.26387;stroke-linecap:butt;stroke-linejoin:round;stroke-miterlimit:10;stroke-dasharray:none;stroke-opacity:1"
         d="m 39.898,293.298 19.602,3.301 19.699,-2.097 19.699,7.5 19.704,-3.903 19.699,27.301 19.597,-36.699 19.704,33.597 19.699,2.204 19.699,-0.301 19.602,-34.5 19.699,26.699 19.699,6.102 19.602,-1.204 19.699,-0.097 L 335,293.298" /><path
         id="path194"
         style="fill:none;stroke:#0084d1;stroke-width:2.26387;stroke-linecap:butt;stroke-linejoin:round;stroke-miterlimit:10;stroke-dasharray:none;stroke-opacity:1"
         d="m 39.898,158.502 19.602,1.5 19.699,-2.903 19.699,3.102 19.704,1.801 19.699,4.597 19.597,-12.699 19.704,9.199 19.699,2.5 19.699,0.602 19.602,-10.199 19.699,6.699 19.699,4.199 19.602,-0.5 19.699,-1 19.699,-6.898" /><path
         id="path196"
         style="fill:none;stroke:#004586;stroke-width:2.26387;stroke-linecap:butt;stroke-linejoin:round;stroke-miterlimit:10;stroke-dasharray:none;stroke-opacity:1"
         d="m 39.898,309.502 19.602,3.796 19.699,8 19.699,-7.5 19.704,3.704 19.699,25.898 19.597,-40.898 19.704,34.796 19.699,1.602 19.699,-1.398 19.602,-31.301 19.699,25.301 19.699,13 19.602,-2.204 19.699,0.5 L 335,309.502" /><path
         id="path198"
         style="fill:none;stroke:#ff420e;stroke-width:2.26387;stroke-linecap:butt;stroke-linejoin:round;stroke-miterlimit:10;stroke-dasharray:none;stroke-opacity:1"
         d="m 39.898,258.599 19.602,4.801 19.699,-7.398 19.699,7.796 19.704,-8.296 19.699,29.796 19.597,-33.199 19.704,17.403 19.699,11.5 19.699,2.597 19.602,-31.398 19.699,15.898 19.699,6.801 19.602,8.102 19.699,-1 L 335,258.599" /><path
         id="path200"
         style="fill:none;stroke:#ffd320;stroke-width:2.26387;stroke-linecap:butt;stroke-linejoin:round;stroke-miterlimit:10;stroke-dasharray:none;stroke-opacity:1"
         d="M 39.898,285.798 59.5,283.9 l 19.699,2.301 19.699,-2.699 19.704,24.796 19.699,6 19.597,-30.898 19.704,34.898 19.699,-2.296 19.699,6.5 19.602,-36.5 19.699,27.097 19.699,3.102 19.602,0.801 19.699,-2 L 335,285.798" /><path
         id="path202"
         style="fill:none;stroke:#579d1c;stroke-width:2.26387;stroke-linecap:butt;stroke-linejoin:round;stroke-miterlimit:10;stroke-dasharray:none;stroke-opacity:1"
         d="m 39.898,193.201 19.602,4.398 19.699,-0.898 19.699,-2 19.704,13.699 19.699,5.5 19.597,-17.699 19.704,12.898 19.699,1 19.699,2.903 19.602,-18.102 19.699,19.898 19.699,-5 19.602,4.704 19.699,-2.704 L 335,193.201" /><path
         id="path204"
         style="fill:none;stroke:#7e0021;stroke-width:2.26387;stroke-linecap:butt;stroke-linejoin:round;stroke-miterlimit:10;stroke-dasharray:none;stroke-opacity:1"
         d="m 39.898,138.701 19.602,1.5 19.699,0.597 19.699,0.903 19.704,0.898 19.699,0.102 19.597,-5.5 19.704,5.199 19.699,-0.301 19.699,-3.597 19.602,0.597 19.699,3.5 19.699,-0.301 19.602,-1.5 19.699,1.102 19.699,-3.199" /><path
         id="path206"
         style="fill:none;stroke:#83caff;stroke-width:2.26387;stroke-linecap:butt;stroke-linejoin:round;stroke-miterlimit:10;stroke-dasharray:none;stroke-opacity:1"
         d="m 39.898,145.201 19.602,1.801 19.699,0.597 19.699,-0.5 19.704,2.699 19.699,0.903 19.597,-15.699 19.704,2.398 19.699,9.398 19.699,0.403 19.602,-10 19.699,-1.199 19.699,10.597 19.602,-0.898 19.699,1.301 19.699,-1.801" /><path
         id="path208"
         style="fill:none;stroke:#314004;stroke-width:2.26387;stroke-linecap:butt;stroke-linejoin:round;stroke-miterlimit:10;stroke-dasharray:none;stroke-opacity:1"
         d="m 39.898,154.599 19.602,9 19.699,0.199 19.699,1.5 19.704,2.903 19.699,4.097 19.597,-12.5 19.704,12.403 19.699,-5.801 19.699,-7.199 19.602,4 19.699,9.699 19.699,-4.602 19.602,-7.097 19.699,5.699 L 335,154.599" /><path
         id="path210"
         style="fill:none;stroke:#aecf00;stroke-width:2.26387;stroke-linecap:butt;stroke-linejoin:round;stroke-miterlimit:10;stroke-dasharray:none;stroke-opacity:1"
         d="m 39.898,156.701 19.602,4.5 19.699,0.398 19.699,-0.301 19.704,5 19.699,3 19.597,-22.796 19.704,7.398 19.699,9.801 19.699,-3.801 19.602,-11.602 19.699,2 19.699,12.704 19.602,-2.801 19.699,3 19.699,-6.5" /><path
         id="path212"
         style="fill:none;stroke:#4b1f6f;stroke-width:2.26387;stroke-linecap:butt;stroke-linejoin:round;stroke-miterlimit:10;stroke-dasharray:none;stroke-opacity:1"
         d="m 39.898,159.502 19.602,2.597 19.699,1.301 19.699,-2 19.704,6 19.699,0.301 19.597,-21.903 19.704,4.403 19.699,13.199 19.699,-0.602 19.602,-16.699 19.699,1 19.699,17.102 19.602,-1.199 19.699,0.5 19.699,-4" /><path
         id="path214"
         style="fill:none;stroke:#ff950e;stroke-width:2.26387;stroke-linecap:butt;stroke-linejoin:round;stroke-miterlimit:10;stroke-dasharray:none;stroke-opacity:1"
         d="m 39.898,165.002 19.602,0.796 19.699,0.801 19.699,1.199 19.704,0.704 19.699,-0.5 19.597,280.898 19.704,-5.102 19.699,-151.699 19.699,-10 19.602,169.102 19.699,2.597 L 276,310.201 295.602,301.4 315.301,290.502 335,165.002" /><path
         id="path216"
         style="fill:none;stroke:#c5000b;stroke-width:2.26387;stroke-linecap:butt;stroke-linejoin:round;stroke-miterlimit:10;stroke-dasharray:none;stroke-opacity:1"
         d="M 39.898,178.298 H 59.5 l 19.699,-0.296 19.699,0.199 19.704,1.597 19.699,-1.398 19.597,298.102 19.704,-0.801 19.699,-134.903 19.699,-3.597 19.602,145.097 19.699,3.5 19.699,-124.097 19.602,-8.403 19.699,-21 19.699,-154" /><path
         id="path218"
         style="fill:none;stroke:#0084d1;stroke-width:2.26387;stroke-linecap:butt;stroke-linejoin:round;stroke-miterlimit:10;stroke-dasharray:none;stroke-opacity:1"
         d="m 39.898,188.201 19.602,1 19.699,2.898 19.699,54.5 19.704,-8.699 19.699,2.602 19.597,219.796 19.704,3.801 19.699,-166.398 19.699,-3.602 19.602,170.699 19.699,4.801 19.699,-162.898 19.602,-7.699 19.699,3.699 19.699,-114.5" /><path
         id="path220"
         style="fill:none;stroke:#004586;stroke-width:2.26387;stroke-linecap:butt;stroke-linejoin:round;stroke-miterlimit:10;stroke-dasharray:none;stroke-opacity:1"
         d="m 39.898,181.002 19.602,2.597 19.699,3.301 19.699,19.801 19.704,-3.199 19.699,1.5 19.597,256.398 19.704,-1.398 19.699,-132.602 19.699,-7.898 19.602,143.296 19.699,6 19.699,-124.296 19.602,-4.204 19.699,-32.5 L 335,181.002" /><text
         id="text254"
         style="font-variant:normal;font-weight:normal;font-size:9.9999px;font-family:Arial;-inkscape-font-specification:ArialMT;writing-mode:lr-tb;fill:#000000;fill-opacity:1;fill-rule:nonzero;stroke:none"
         transform="matrix(0.70710678,0.70710678,0.70710678,-0.70710678,20.600006,81.800025)"><tspan
           id="tspan222"
           y="0"
           x="0 5.6599455 11.169893 14.129865 19.78981 25.439756 27.699734">default</tspan><tspan
           id="tspan224"
           y="13.929996"
           x="20.718231 25.808182 30.898134 36.558079 38.678059">scale</tspan><tspan
           id="tspan226"
           y="27.789284"
           x="19.86969 24.959642 30.049593 35.709538 37.969517 43.619461 47.019428 52.669376">scale-ud</tspan><tspan
           id="tspan228"
           y="41.789997"
           x="13.364323 18.454273 24.11422 26.2342 32.024143 35.42411 41.074059 46.734001 50.12397 55.783916 61.433861 63.69384 66.513817">cale-ud-delta</tspan><tspan
           id="tspan230"
           y="55.649284"
           x="63.568913 69.078857 74.738808 80.53875">node</tspan><tspan
           id="tspan232"
           y="69.579292"
           x="89.943977 95.033928">ss</tspan><tspan
           id="tspan234"
           y="83.5093"
           x="89.166176 94.676125 99.776077 108.256">avmn</tspan><tspan
           id="tspan236"
           y="97.368599"
           x="74.034096 82.52401 88.313957 91.713921 97.363869 103.02381 108.11376 110.93374 114.32371 116.58369 122.24363">mn-bactrian</tspan><tspan
           id="tspan238"
           y="111.2986"
           x="86.267036 91.356987 94.176956 97.576927 99.836906 105.48685 111.1468 114.53677 123.02668 125.42666 130.51662 136.17656">ctrian-mixed</tspan><tspan
           id="tspan240"
           y="125.1579"
           x="99.560646 102.52062 105.92059 108.04057 113.83051 119.49046 122.88042 131.37035 133.63033 138.72028 144.37022 150.03017">trian-mixed2</tspan><tspan
           id="tspan242"
           y="139.08791"
           x="128.33987 131.15985 136.81979 139.07977 141.33975 144.72972 150.38966 155.47961 161.12956">full-avnm</tspan><tspan
           id="tspan244"
           y="153.08862"
           x="129.7541 135.41405 143.89397 147.28394 152.94388 158.60382 163.69377 166.51375 169.90372 172.1637 177.96364">nm-bactrian</tspan><tspan
           id="tspan246"
           y="166.94791"
           x="141.91634 147.00629 149.82625 153.22623 155.48621 161.27614 166.9361 170.32607 178.81598 181.07596 186.16591 191.82585">ctrian-mixed</tspan><tspan
           id="tspan248"
           y="180.87791"
           x="138.73434 144.5343 150.18423 155.2742 158.09416 161.49414 163.7541 169.40405 175.06401 178.45396 186.94389 189.20387 194.29382 199.95377 205.60371">bactrian-mixed2</tspan><tspan
           id="tspan250"
           y="194.7372"
           x="130.10765 135.1976 140.85754 149.33746 152.73743 158.52737 164.18732 169.27727 172.09724 175.48721 177.74719 183.40714 189.06708 192.45705 200.93697 203.20694 208.29689 213.94684 219.60678">vnm-bactrian-mixed3</tspan><tspan
           id="tspan252"
           y="208.66721"
           x="208.66722 214.32716 219.97711 222.79709 228.45703 234.10698 236.36696">default</tspan></text><text
         id="text276"
         style="font-variant:normal;font-weight:normal;font-size:10px;font-family:Arial;-inkscape-font-specification:ArialMT;writing-mode:lr-tb;fill:#000000;fill-opacity:1;fill-rule:nonzero;stroke:none"
         transform="matrix(1,0,0,-1,27.099997,113.50004)"><tspan
           id="tspan256"
           y="0"
           x="0">0</tspan><tspan
           id="tspan258"
           y="-45.39999"
           x="-11.3 -5.6100001 -0.02">200</tspan><tspan
           id="tspan260"
           y="-90.699982"
           x="-11.3 -5.6100001 -0.02">400</tspan><tspan
           id="tspan262"
           y="-136.09998"
           x="-11.3 -5.6100001 -0.02">600</tspan><tspan
           id="tspan264"
           y="-181.49998"
           x="-11.3 -5.6100001 -0.02">800</tspan><tspan
           id="tspan266"
           y="-226.89995"
           x="-17 -11.31 -5.6199999 -0.029999999">1000</tspan><tspan
           id="tspan268"
           y="-272.20001"
           x="-17 -11.31 -5.6199999 -0.029999999">1200</tspan><tspan
           id="tspan270"
           y="-317.59995"
           x="-17 -11.31 -5.6199999 -0.029999999">1400</tspan><tspan
           id="tspan272"
           y="-362.99997"
           x="-17 -11.31 -5.6199999 -0.029999999">1600</tspan><tspan
           id="tspan274"
           y="-408.29996"
           x="-17 -11.31 -5.6199999 -0.029999999">1800</tspan></text><path
         id="path278"
         style="fill:none;stroke:#004586;stroke-width:2.26387;stroke-linecap:butt;stroke-linejoin:round;stroke-miterlimit:10;stroke-dasharray:none;stroke-opacity:1"
         d="m 352.398,438.4 h 22.704" /><path
         id="path280"
         style="fill:none;stroke:#ff420e;stroke-width:2.26387;stroke-linecap:butt;stroke-linejoin:round;stroke-miterlimit:10;stroke-dasharray:none;stroke-opacity:1"
         d="m 352.398,424.201 h 22.704" /><path
         id="path282"
         style="fill:none;stroke:#ffd320;stroke-width:2.26387;stroke-linecap:butt;stroke-linejoin:round;stroke-miterlimit:10;stroke-dasharray:none;stroke-opacity:1"
         d="m 352.398,410.002 h 22.704" /><path
         id="path284"
         style="fill:none;stroke:#579d1c;stroke-width:2.26387;stroke-linecap:butt;stroke-linejoin:round;stroke-miterlimit:10;stroke-dasharray:none;stroke-opacity:1"
         d="m 352.398,395.798 h 22.704" /><path
         id="path286"
         style="fill:none;stroke:#7e0021;stroke-width:2.26387;stroke-linecap:butt;stroke-linejoin:round;stroke-miterlimit:10;stroke-dasharray:none;stroke-opacity:1"
         d="m 352.398,381.599 h 22.704" /><path
         id="path288"
         style="fill:none;stroke:#83caff;stroke-width:2.26387;stroke-linecap:butt;stroke-linejoin:round;stroke-miterlimit:10;stroke-dasharray:none;stroke-opacity:1"
         d="m 352.398,367.4 h 22.704" /><path
         id="path290"
         style="fill:none;stroke:#314004;stroke-width:2.26387;stroke-linecap:butt;stroke-linejoin:round;stroke-miterlimit:10;stroke-dasharray:none;stroke-opacity:1"
         d="m 352.398,353.201 h 22.704" /><path
         id="path292"
         style="fill:none;stroke:#aecf00;stroke-width:2.26387;stroke-linecap:butt;stroke-linejoin:round;stroke-miterlimit:10;stroke-dasharray:none;stroke-opacity:1"
         d="m 352.398,339.002 h 22.704" /><path
         id="path294"
         style="fill:none;stroke:#4b1f6f;stroke-width:2.26387;stroke-linecap:butt;stroke-linejoin:round;stroke-miterlimit:10;stroke-dasharray:none;stroke-opacity:1"
         d="m 352.398,324.798 h 22.704" /><path
         id="path296"
         style="fill:none;stroke:#ff950e;stroke-width:2.26387;stroke-linecap:butt;stroke-linejoin:round;stroke-miterlimit:10;stroke-dasharray:none;stroke-opacity:1"
         d="m 352.398,310.599 h 22.704" /><path
         id="path298"
         style="fill:none;stroke:#c5000b;stroke-width:2.26387;stroke-linecap:butt;stroke-linejoin:round;stroke-miterlimit:10;stroke-dasharray:none;stroke-opacity:1"
         d="m 352.398,296.4 h 22.704" /><path
         id="path300"
         style="fill:none;stroke:#0084d1;stroke-width:2.26387;stroke-linecap:butt;stroke-linejoin:round;stroke-miterlimit:10;stroke-dasharray:none;stroke-opacity:1"
         d="m 352.398,282.201 h 22.704" /><path
         id="path302"
         style="fill:none;stroke:#004586;stroke-width:2.26387;stroke-linecap:butt;stroke-linejoin:round;stroke-miterlimit:10;stroke-dasharray:none;stroke-opacity:1"
         d="m 352.398,268.002 h 22.704" /><path
         id="path304"
         style="fill:none;stroke:#ff420e;stroke-width:2.26387;stroke-linecap:butt;stroke-linejoin:round;stroke-miterlimit:10;stroke-dasharray:none;stroke-opacity:1"
         d="m 352.398,253.798 h 22.704" /><path
         id="path306"
         style="fill:none;stroke:#ffd320;stroke-width:2.26387;stroke-linecap:butt;stroke-linejoin:round;stroke-miterlimit:10;stroke-dasharray:none;stroke-opacity:1"
         d="m 352.398,239.599 h 22.704" /><path
         id="path308"
         style="fill:none;stroke:#579d1c;stroke-width:2.26387;stroke-linecap:butt;stroke-linejoin:round;stroke-miterlimit:10;stroke-dasharray:none;stroke-opacity:1"
         d="m 352.398,225.4 h 22.704" /><path
         id="path310"
         style="fill:none;stroke:#7e0021;stroke-width:2.26387;stroke-linecap:butt;stroke-linejoin:round;stroke-miterlimit:10;stroke-dasharray:none;stroke-opacity:1"
         d="m 352.398,211.201 h 22.704" /><path
         id="path312"
         style="fill:none;stroke:#83caff;stroke-width:2.26387;stroke-linecap:butt;stroke-linejoin:round;stroke-miterlimit:10;stroke-dasharray:none;stroke-opacity:1"
         d="m 352.398,197.002 h 22.704" /><path
         id="path314"
         style="fill:none;stroke:#314004;stroke-width:2.26387;stroke-linecap:butt;stroke-linejoin:round;stroke-miterlimit:10;stroke-dasharray:none;stroke-opacity:1"
         d="m 352.398,182.798 h 22.704" /><path
         id="path316"
         style="fill:none;stroke:#aecf00;stroke-width:2.26387;stroke-linecap:butt;stroke-linejoin:round;stroke-miterlimit:10;stroke-dasharray:none;stroke-opacity:1"
         d="m 352.398,168.599 h 22.704" /><path
         id="path318"
         style="fill:none;stroke:#4b1f6f;stroke-width:2.26387;stroke-linecap:butt;stroke-linejoin:round;stroke-miterlimit:10;stroke-dasharray:none;stroke-opacity:1"
         d="m 352.398,154.4 h 22.704" /><path
         id="path320"
         style="fill:none;stroke:#ff950e;stroke-width:2.26387;stroke-linecap:butt;stroke-linejoin:round;stroke-miterlimit:10;stroke-dasharray:none;stroke-opacity:1"
         d="m 352.398,140.201 h 22.704" /><path
         id="path322"
         style="fill:none;stroke:#c5000b;stroke-width:2.26387;stroke-linecap:butt;stroke-linejoin:round;stroke-miterlimit:10;stroke-dasharray:none;stroke-opacity:1"
         d="m 352.398,126.002 h 22.704" /><path
         id="path324"
         style="fill:none;stroke:#0084d1;stroke-width:2.26387;stroke-linecap:butt;stroke-linejoin:round;stroke-miterlimit:10;stroke-dasharray:none;stroke-opacity:1"
         d="m 352.398,111.798 h 22.704" /><path
         id="path326"
         style="fill:none;stroke:#004586;stroke-width:2.26387;stroke-linecap:butt;stroke-linejoin:round;stroke-miterlimit:10;stroke-dasharray:none;stroke-opacity:1"
         d="m 352.398,97.599 h 22.704" /><text
         id="text378"
         style="font-variant:normal;font-weight:normal;font-size:10px;font-family:Arial;-inkscape-font-specification:ArialMT;writing-mode:lr-tb;fill:#000000;fill-opacity:1;fill-rule:nonzero;stroke:none"
         transform="matrix(1,0,0,-1,377.9,435.00004)"><tspan
           id="tspan328"
           y="0"
           x="0 5.6900001 11.38 16.469999 19.24 24.940001 28.33 30.620001 36.18">posterior</tspan><tspan
           id="tspan330"
           y="14.20001"
           x="0 2.29 4.5799999 9.6700001 15.26 17.540001 19.83 25.52 31.110001 36.799999">likelihood</tspan><tspan
           id="tspan332"
           y="28.400021"
           x="0 5.6900001 9.0799999 11.37 16.959999">prior</tspan><tspan
           id="tspan334"
           y="42.600029"
           x="0 2.8800001 6.27 11.86 17.549999 23.24 25.530001 30.620001 36.18 38.490002 40.779999 46.369999 52.060001 57.75 63.310001 66.220001 71.309998 79.800003 87.080002 95.57">treeLikelihood.xMCMC</tspan><tspan
           id="tspan336"
           y="56.79998"
           x="0 6.2800002 9.6700001 15.26 20.950001 28.34 34.029999 36.220001 41.91 47.599998">TreeHeight</tspan><tspan
           id="tspan338"
           y="70.999992"
           x="0 6.7800002 12.47 14.76 20.35 28.940001 34.5 40.209999 45.900002">YuleModel</tspan><tspan
           id="tspan340"
           y="85.199997"
           x="0 5.6900001 7.98 11.37 14.14 19.84 27.23 32.790001 35.700001">birthRate</tspan><tspan
           id="tspan342"
           y="99.400009"
           x="0 5.0900002 10.78 16.469999 22.059999">kappa</tspan><tspan
           id="tspan344"
           y="113.60002"
           x="0 5.6900001 11.38 19.870001 28.360001 34.049999 40.830002 46.389999 52.099998 57.790001">gammaShape</tspan><tspan
           id="tspan346"
           y="127.79997"
           x="0 8.4899998 11.88 16.969999 22.66 25.540001 31.129999 36.82 42.509998 45.900002 53.18 58.869999 67.360001 73.050003 78.639999 86.620003 92.209999 95.599998 97.889999 100.18 102.46 108.05">mrca.age(HumanGorilla)</tspan><tspan
           id="tspan348"
           y="141.99998"
           x="0 8.4899998 11.88 16.969999 22.66 25.540001 31.129999 36.82 42.509998 45.900002 54.389999 59.950001 65.660004 70.75 76.440002 81.529999 88.309998 93.900002 99.589996">mrca.age(MonkeyApe)</tspan><tspan
           id="tspan350"
           y="156.2"
           x="0 8.4899998 11.88 16.969999 22.66 25.540001 31.129999 36.82 42.509998 45.900002 52.68 56.07 58.259998 66.75 72.440002 75.209999 80.910004 86">mrca.age(Primates)</tspan><tspan
           id="tspan352"
           y="170.39999"
           x="0 8.4899998 11.88 16.969999 22.66 25.540001 31.129999 36.82 42.509998 45.900002 53.18 58.869999 62.259998 67.349998 73.040001 80.330002 86.019997 88.309998 93.870003 99.580002">mrca.age(HorseRhino)</tspan><tspan
           id="tspan354"
           y="184.59998"
           x="0 8.4899998 11.88 16.969999 22.66 25.540001 31.129999 36.82 42.509998 45.900002 55.48 61.169998 66.730003 69.040001 74.730003 79.82">mrca.age(Whales)</tspan><tspan
           id="tspan356"
           y="198.79999"
           x="0 8.4899998 11.88 16.969999 22.66 25.540001 31.129999 36.82 42.509998 45.900002 55.48 61.169998 66.730003 69.040001 74.730003 82.019997 84.309998 90 95.559998 101.27">mrca.age(WhaleHippo)</tspan><tspan
           id="tspan358"
           y="212.99997"
           x="0 8.4899998 11.88 16.969999 22.66 25.540001 31.129999 36.82 42.509998 45.900002 52.080002 57.77 59.959999 62.25 67.940002 75.230003 80.919998 86.610001 88.800003 94.489998">mrca.age(FelidCanid)</tspan><tspan
           id="tspan360"
           y="227.19998"
           x="0 5.6900001 10.78 13.07 18.66 27.25 32.810001 38.52">ucldMean</tspan><tspan
           id="tspan362"
           y="241.39999"
           x="0 5.6900001 10.78 13.07 18.66 25.540001 28.309999 34.009998 39.57">ucldStdev</tspan><tspan
           id="tspan364"
           y="255.59998"
           x="0 3.3900001 9.0799999 11.85 17.549999 20.32 28.92 34.509998 40.200001">rate.mean</tspan><tspan
           id="tspan366"
           y="269.79999"
           x="0 3.3900001 9.0799999 11.85 17.549999 20.32 25.52 31.110001 34.5 36.790001 42.48 48.040001 53.150002">rate.variance</tspan><tspan
           id="tspan368"
           y="283.99997"
           x="0 3.3900001 9.0799999 11.85 17.549999 20.32 25.52 31.110001 36.799999 39.57 42.459999 44.68 49.75 52.040001 57.73 63.290001 66.199997 74.080002 76.849998 83.639999 89.330002 92.720001 95.010002 100.69 103.46 105.76 111.35">rate.coefficientOfVariation</tspan><tspan
           id="tspan370"
           y="298.19998"
           x="0 2.8800001 6.27 11.86 17.549999 24.33 30.02 33.41 39.099998 47.59 53.150002 56.060001 61.619999 65.029999 67.919998">freqParameter.1</tspan><tspan
           id="tspan372"
           y="312.39999"
           x="0 2.8800001 6.27 11.86 17.549999 24.33 30.02 33.41 39.099998 47.59 53.150002 56.060001 61.619999 65.029999 67.919998">freqParameter.2</tspan><tspan
           id="tspan374"
           y="326.59995"
           x="0 2.8800001 6.27 11.86 17.549999 24.33 30.02 33.41 39.099998 47.59 53.150002 56.060001 61.619999 65.029999 67.919998">freqParameter.3</tspan><tspan
           id="tspan376"
           y="340.79996"
           x="0 2.8800001 6.27 11.86 17.549999 24.33 30.02 33.41 39.099998 47.59 53.150002 56.060001 61.619999 65.029999 67.919998">freqParameter.4</tspan></text></g></g></svg>
