<?xml version="1.0" encoding="UTF-8" standalone="no"?>
<svg
   xmlns:dc="http://purl.org/dc/elements/1.1/"
   xmlns:cc="http://creativecommons.org/ns#"
   xmlns:rdf="http://www.w3.org/1999/02/22-rdf-syntax-ns#"
   xmlns:svg="http://www.w3.org/2000/svg"
   xmlns="http://www.w3.org/2000/svg"
   viewBox="0 0 55.70171 75.191949"
   height="75.191948"
   width="55.70171"
   xml:space="preserve"
   id="svg11922"
   version="1.1"><metadata
     id="metadata11928"><rdf:RDF><cc:Work
         rdf:about=""><dc:format>image/svg+xml</dc:format><dc:type
           rdf:resource="http://purl.org/dc/dcmitype/StillImage" /><dc:title></dc:title></cc:Work></rdf:RDF></metadata><defs
     id="defs11926"><clipPath
       id="clipPath11942"
       clipPathUnits="userSpaceOnUse"><path
         id="path11940"
         d="M 0,0 H 448 V 254 H 0 Z" /></clipPath><clipPath
       id="clipPath11954"
       clipPathUnits="userSpaceOnUse"><path
         id="path11952"
         d="M 0,0 H 448 V 254 H 0 Z" /></clipPath><clipPath
       id="clipPath11966"
       clipPathUnits="userSpaceOnUse"><path
         id="path11964"
         d="M 8,0 H 440 V 246 H 8 Z" /></clipPath></defs><path
     d="M 0.28085716,72.941291 H 22.035517 l 4.308,-26.92667 H 4.5821872 Z"
     style="fill:#ffffff;fill-opacity:1;fill-rule:nonzero;stroke:#000000;stroke-width:0.561724;stroke-linecap:butt;stroke-linejoin:round;stroke-miterlimit:4;stroke-dasharray:none;stroke-opacity:1"
     id="path12008" /><path
     d="m 30.644857,72.941291 h 24.775996 l -4.30134,-26.92667 H 26.343517 Z"
     style="fill:#ffffff;fill-opacity:1;fill-rule:nonzero;stroke:#000000;stroke-width:0.561724;stroke-linecap:butt;stroke-linejoin:round;stroke-miterlimit:4;stroke-dasharray:none;stroke-opacity:1"
     id="path12012" /><path
     d="M 4.5821872,46.014621 H 51.119513 l -1.57133,-24.02133 H 3.0108602 Z"
     style="fill:#ffffff;fill-opacity:1;fill-rule:nonzero;stroke:#000000;stroke-width:0.339512;stroke-linecap:butt;stroke-linejoin:round;stroke-miterlimit:4;stroke-dasharray:none;stroke-opacity:1"
     id="path12016" /><path
     d="m 33.400857,72.941291 0.0773,-8.11867"
     style="fill:none;stroke:#50b2db;stroke-width:0.561724;stroke-linecap:round;stroke-linejoin:miter;stroke-miterlimit:4;stroke-dasharray:none;stroke-opacity:1"
     id="path12068" /><path
     id="path12070"
     style="fill:#50b2db;fill-opacity:1;fill-rule:nonzero;stroke:none;stroke-width:1.33333"
     d="m 35.644857,72.941291 c 0,1.24 -1.00534,2.25066 -2.244,2.25066 -1.24534,0 -2.25067,-1.01066 -2.25067,-2.25066 0,-1.23867 1.00533,-2.244 2.25067,-2.244 1.23866,0 2.244,1.00533 2.244,2.244" /><path
     d="m 36.150187,72.941291 -2.672,-8.11867"
     style="fill:none;stroke:#50b2db;stroke-width:0.561724;stroke-linecap:round;stroke-linejoin:miter;stroke-miterlimit:4;stroke-dasharray:none;stroke-opacity:1"
     id="path12074" /><path
     id="path12076"
     style="fill:#50b2db;fill-opacity:1;fill-rule:nonzero;stroke:none;stroke-width:1.33333"
     d="m 38.400857,72.941291 c 0,1.24 -1.01067,2.25066 -2.25067,2.25066 -1.23867,0 -2.244,-1.01066 -2.244,-2.25066 0,-1.23867 1.00533,-2.244 2.244,-2.244 1.24,0 2.25067,1.00533 2.25067,2.244" /><path
     d="m 33.478187,64.822621 -0.94267,-18.808"
     style="fill:none;stroke:#50b2db;stroke-width:0.561724;stroke-linecap:round;stroke-linejoin:miter;stroke-miterlimit:4;stroke-dasharray:none;stroke-opacity:1"
     id="path12080" /><path
     d="M 32.535517,46.014621 22.633996,11.223284"
     style="fill:none;stroke:#50b2db;stroke-width:0.561724;stroke-linecap:round;stroke-linejoin:miter;stroke-miterlimit:4;stroke-dasharray:none;stroke-opacity:1"
     id="path12084" /><path
     id="path12090"
     style="fill:#50b2db;fill-opacity:1;fill-rule:nonzero;stroke:none;stroke-width:1.33333"
     d="m 35.723517,64.822621 c 0,1.23867 -1.00533,2.244 -2.24533,2.244 -1.244,0 -2.24933,-1.00533 -2.24933,-2.244 0,-1.24 1.00533,-2.24533 2.24933,-2.24533 1.24,0 2.24533,1.00533 2.24533,2.24533" /><path
     d="m 2.6968572,72.941291 3.69866,-26.92667"
     style="fill:none;stroke:#50b2db;stroke-width:0.561724;stroke-linecap:round;stroke-linejoin:miter;stroke-miterlimit:4;stroke-dasharray:none;stroke-opacity:1"
     id="path12114" /><path
     d="M 6.3955172,46.014621 20.634927,15.110154"
     style="fill:none;stroke:#50b2db;stroke-width:0.561724;stroke-linecap:round;stroke-linejoin:miter;stroke-miterlimit:4;stroke-dasharray:none;stroke-opacity:1"
     id="path12118" /><path
     d="M 22.633996,11.223284 26.16381,0.280862"
     style="fill:none;stroke:#50b2db;stroke-width:0.561724;stroke-linecap:round;stroke-linejoin:miter;stroke-miterlimit:4;stroke-dasharray:none;stroke-opacity:1"
     id="path12122" /><path
     id="path12124"
     style="fill:#50b2db;fill-opacity:1;fill-rule:nonzero;stroke:none;stroke-width:1.33333"
     d="m 4.9421872,72.941291 c 0,1.24 -1.00533,2.25066 -2.24533,2.25066 -1.23867,0 -2.24400004,-1.01066 -2.24400004,-2.25066 0,-1.23867 1.00533004,-2.244 2.24400004,-2.244 1.24,0 2.24533,1.00533 2.24533,2.244" /><path
     d="m 5.1141872,72.941291 3.09333,-26.92667"
     style="fill:none;stroke:#50b2db;stroke-width:0.561724;stroke-linecap:round;stroke-linejoin:miter;stroke-miterlimit:4;stroke-dasharray:none;stroke-opacity:1"
     id="path12128" /><path
     d="M 8.2075172,46.014621 20.634927,15.110154"
     style="fill:none;stroke:#50b2db;stroke-width:0.561724;stroke-linecap:round;stroke-linejoin:miter;stroke-miterlimit:4;stroke-dasharray:none;stroke-opacity:1"
     id="path12132" /><path
     d="m 20.634927,14.580682 1.999069,-3.357398"
     style="fill:none;stroke:#50b2db;stroke-width:0.561724;stroke-linecap:round;stroke-linejoin:miter;stroke-miterlimit:4;stroke-dasharray:none;stroke-opacity:1"
     id="path12136" /><path
     id="path12138"
     style="fill:#50b2db;fill-opacity:1;fill-rule:nonzero;stroke:none;stroke-width:1.33333"
     d="m 7.3635172,72.941291 c 0,1.24 -1.00933,2.25066 -2.24933,2.25066 -1.24,0 -2.24533,-1.01066 -2.24533,-2.25066 0,-1.23867 1.00533,-2.244 2.24533,-2.244 1.24,0 2.24933,1.00533 2.24933,2.244" /><path
     id="path12144"
     style="fill:#50b2db;fill-opacity:1;fill-rule:nonzero;stroke:none;stroke-width:1.33333"
     d="m 24.349854,12.458719 c 0,1.24 -1.00533,2.24533 -2.24533,2.24533 -1.23867,0 -2.244,-1.00533 -2.244,-2.24533 0,-1.24533 1.00533,-2.25067 2.244,-2.25067 1.24,0 2.24533,1.00534 2.24533,2.25067" /><path
     d="m 41.655517,72.941291 1.223996,-0.948"
     style="fill:none;stroke:#50db79;stroke-width:0.561724;stroke-linecap:round;stroke-linejoin:miter;stroke-miterlimit:4;stroke-dasharray:none;stroke-opacity:1"
     id="path12570" /><path
     id="path12572"
     style="fill:#50db79;fill-opacity:1;fill-rule:nonzero;stroke:none;stroke-width:1.33333"
     d="m 43.906183,72.941291 c 0,1.24 -1.00533,2.25066 -2.250666,2.25066 -1.24,0 -2.244,-1.01066 -2.244,-2.25066 0,-1.23867 1.004,-2.244 2.244,-2.244 1.245336,0 2.250666,1.00533 2.250666,2.244" /><path
     d="m 44.411513,72.941291 -1.532,-0.948"
     style="fill:none;stroke:#50db79;stroke-width:0.561724;stroke-linecap:round;stroke-linejoin:miter;stroke-miterlimit:4;stroke-dasharray:none;stroke-opacity:1"
     id="path12576" /><path
     id="path12578"
     style="fill:#50db79;fill-opacity:1;fill-rule:nonzero;stroke:none;stroke-width:1.33333"
     d="m 46.655513,72.941291 c 0,1.24 -1.00533,2.25066 -2.244,2.25066 -1.24,0 -2.250656,-1.01066 -2.250656,-2.25066 0,-1.23867 1.010656,-2.244 2.250656,-2.244 1.23867,0 2.244,1.00533 2.244,2.244" /><path
     d="M 42.879513,71.993291 40.103517,46.014621"
     style="fill:none;stroke:#50db79;stroke-width:0.561724;stroke-linecap:round;stroke-linejoin:miter;stroke-miterlimit:4;stroke-dasharray:none;stroke-opacity:1"
     id="path12582" /><path
     d="M 40.103517,46.014621 41.447089,9.4624524"
     style="fill:none;stroke:#50db79;stroke-width:0.561724;stroke-linecap:round;stroke-linejoin:miter;stroke-miterlimit:4;stroke-dasharray:none;stroke-opacity:1"
     id="path12586" /><path
     id="path12592"
     style="fill:#50db79;fill-opacity:1;fill-rule:nonzero;stroke:none;stroke-width:1.33333"
     d="m 45.130183,71.993291 c 0,1.24 -1.00533,2.24533 -2.25067,2.24533 -1.239996,0 -2.245326,-1.00533 -2.245326,-2.24533 0,-1.244 1.00533,-2.24934 2.245326,-2.24934 1.24534,0 2.25067,1.00534 2.25067,2.24934" /><path
     d="m 9.9475172,72.941291 3.7599998,-15.948"
     style="fill:none;stroke:#50db79;stroke-width:0.561724;stroke-linecap:round;stroke-linejoin:miter;stroke-miterlimit:4;stroke-dasharray:none;stroke-opacity:1"
     id="path12610" /><path
     id="path12612"
     style="fill:#50db79;fill-opacity:1;fill-rule:nonzero;stroke:none;stroke-width:1.33333"
     d="m 12.196857,72.941291 c 0,1.24 -1.00534,2.25066 -2.2493398,2.25066 -1.24,0 -2.24533,-1.01066 -2.24533,-2.25066 0,-1.23867 1.00533,-2.244 2.24533,-2.244 1.2439998,0 2.2493398,1.00533 2.2493398,2.244" /><path
     d="m 12.368857,72.941291 1.33866,-15.948"
     style="fill:none;stroke:#50db79;stroke-width:0.561724;stroke-linecap:round;stroke-linejoin:miter;stroke-miterlimit:4;stroke-dasharray:none;stroke-opacity:1"
     id="path12616" /><path
     id="path12618"
     style="fill:#50db79;fill-opacity:1;fill-rule:nonzero;stroke:none;stroke-width:1.33333"
     d="m 14.614187,72.941291 c 0,1.24 -1.00533,2.25066 -2.24533,2.25066 -1.244,0 -2.24934,-1.01066 -2.24934,-2.25066 0,-1.23867 1.00534,-2.244 2.24934,-2.244 1.24,0 2.24533,1.00533 2.24533,2.244" /><path
     d="m 13.707517,56.993291 0.54667,-10.97867"
     style="fill:none;stroke:#50db79;stroke-width:0.561724;stroke-linecap:round;stroke-linejoin:miter;stroke-miterlimit:4;stroke-dasharray:none;stroke-opacity:1"
     id="path12622" /><path
     d="M 14.254187,46.014621 41.447089,9.4624524"
     style="fill:none;stroke:#50db79;stroke-width:0.561724;stroke-linecap:round;stroke-linejoin:miter;stroke-miterlimit:4;stroke-dasharray:none;stroke-opacity:1"
     id="path12626" /><path
     d="M 41.447089,9.4624524 36.307623,1.3368551"
     style="fill:none;stroke:#50db79;stroke-width:0.561724;stroke-linecap:round;stroke-linejoin:miter;stroke-miterlimit:4;stroke-dasharray:none;stroke-opacity:1"
     id="path12630" /><path
     id="path12632"
     style="fill:#50db79;fill-opacity:1;fill-rule:nonzero;stroke:none;stroke-width:1.33333"
     d="m 15.952857,56.993291 c 0,1.24 -1.00534,2.24533 -2.24534,2.24533 -1.23866,0 -2.244,-1.00533 -2.244,-2.24533 0,-1.244 1.00534,-2.24934 2.244,-2.24934 1.24,0 2.24534,1.00534 2.24534,2.24934" /><path
     id="path12638"
     style="fill:#50db79;fill-opacity:1;fill-rule:nonzero;stroke:none;stroke-width:1.33333"
     d="m 43.917963,9.1094714 c 0,1.2399996 -1.00533,2.2506596 -2.245334,2.2506596 -1.239999,0 -2.245339,-1.01066 -2.245339,-2.2506596 0,-1.23867 1.00534,-2.244 2.245339,-2.244 1.240004,0 2.245334,1.00533 2.245334,2.244" /><path
     d="m 17.202187,72.941291 2.03733,-5.18667"
     style="fill:none;stroke:#db506d;stroke-width:0.561724;stroke-linecap:round;stroke-linejoin:miter;stroke-miterlimit:4;stroke-dasharray:none;stroke-opacity:1"
     id="path12972" /><path
     id="path12974"
     style="fill:#db506d;fill-opacity:1;fill-rule:nonzero;stroke:none;stroke-width:1.33333"
     d="m 19.447517,72.941291 c 0,1.24 -1.00533,2.25066 -2.24533,2.25066 -1.23867,0 -2.244,-1.01066 -2.244,-2.25066 0,-1.23867 1.00533,-2.244 2.244,-2.244 1.24,0 2.24533,1.00533 2.24533,2.244" /><path
     d="m 19.619517,72.941291 -0.38,-5.18667"
     style="fill:none;stroke:#db506d;stroke-width:0.561724;stroke-linecap:round;stroke-linejoin:miter;stroke-miterlimit:4;stroke-dasharray:none;stroke-opacity:1"
     id="path12978" /><path
     id="path12980"
     style="fill:#db506d;fill-opacity:1;fill-rule:nonzero;stroke:none;stroke-width:1.33333"
     d="m 21.868857,72.941291 c 0,1.24 -1.01067,2.25066 -2.24934,2.25066 -1.24,0 -2.24533,-1.01066 -2.24533,-2.25066 0,-1.23867 1.00533,-2.244 2.24533,-2.244 1.23867,0 2.24934,1.00533 2.24934,2.244" /><path
     d="m 19.239517,67.754621 2.26534,-21.74"
     style="fill:none;stroke:#db506d;stroke-width:0.561724;stroke-linecap:round;stroke-linejoin:miter;stroke-miterlimit:4;stroke-dasharray:none;stroke-opacity:1"
     id="path12984" /><path
     d="m 21.504857,46.014621 10.84933,-14.40133"
     style="fill:none;stroke:#db506d;stroke-width:0.561724;stroke-linecap:round;stroke-linejoin:miter;stroke-miterlimit:4;stroke-dasharray:none;stroke-opacity:1"
     id="path12988" /><path
     id="path12990"
     style="fill:#db506d;fill-opacity:1;fill-rule:nonzero;stroke:none;stroke-width:1.33333"
     d="m 21.488857,67.754621 c 0,1.23867 -1.00534,2.244 -2.24934,2.244 -1.24,0 -2.24533,-1.00533 -2.24533,-2.244 0,-1.24533 1.00533,-2.25067 2.24533,-2.25067 1.244,0 2.24934,1.00534 2.24934,2.25067" /><path
     d="m 49.915513,72.941291 -0.48933,-11.68667"
     style="fill:none;stroke:#db506d;stroke-width:0.561724;stroke-linecap:round;stroke-linejoin:miter;stroke-miterlimit:4;stroke-dasharray:none;stroke-opacity:1"
     id="path12994" /><path
     id="path12996"
     style="fill:#db506d;fill-opacity:1;fill-rule:nonzero;stroke:none;stroke-width:1.33333"
     d="m 52.160853,72.941291 c 0,1.24 -1.00534,2.25066 -2.24534,2.25066 -1.23866,0 -2.244,-1.01066 -2.244,-2.25066 0,-1.23867 1.00534,-2.244 2.244,-2.244 1.24,0 2.24534,1.00533 2.24534,2.244" /><path
     d="m 52.671513,72.941291 -3.24533,-11.68667"
     style="fill:none;stroke:#db506d;stroke-width:0.561724;stroke-linecap:round;stroke-linejoin:miter;stroke-miterlimit:4;stroke-dasharray:none;stroke-opacity:1"
     id="path13000" /><path
     id="path13002"
     style="fill:#db506d;fill-opacity:1;fill-rule:nonzero;stroke:none;stroke-width:1.33333"
     d="m 54.915513,72.941291 c 0,1.24 -1.004,2.25066 -2.244,2.25066 -1.24533,0 -2.25066,-1.01066 -2.25066,-2.25066 0,-1.23867 1.00533,-2.244 2.25066,-2.244 1.24,0 2.244,1.00533 2.244,2.244" /><path
     d="m 49.426183,61.254621 -1.06267,-15.24"
     style="fill:none;stroke:#db506d;stroke-width:0.561724;stroke-linecap:round;stroke-linejoin:miter;stroke-miterlimit:4;stroke-dasharray:none;stroke-opacity:1"
     id="path13006" /><path
     d="M 48.363513,46.014621 32.354187,31.613291"
     style="fill:none;stroke:#db506d;stroke-width:0.561724;stroke-linecap:round;stroke-linejoin:miter;stroke-miterlimit:4;stroke-dasharray:none;stroke-opacity:1"
     id="path13010" /><path
     id="path13012"
     style="fill:#db506d;fill-opacity:1;fill-rule:nonzero;stroke:none;stroke-width:1.33333"
     d="m 51.671513,61.254621 c 0,1.244 -1.00533,2.24933 -2.24533,2.24933 -1.244,0 -2.24933,-1.00533 -2.24933,-2.24933 0,-1.24 1.00533,-2.24533 2.24933,-2.24533 1.24,0 2.24533,1.00533 2.24533,2.24533" /><path
     d="M 32.354187,31.613291 29.901935,0.4614272"
     style="fill:none;stroke:#db506d;stroke-width:0.561724;stroke-linecap:round;stroke-linejoin:miter;stroke-miterlimit:4;stroke-dasharray:none;stroke-opacity:1"
     id="path13016" /><path
     id="path13022"
     style="fill:#db506d;fill-opacity:1;fill-rule:nonzero;stroke:none;stroke-width:1.33333"
     d="m 34.603517,31.613291 c 0,1.24533 -1.00533,2.25067 -2.24933,2.25067 -1.24,0 -2.24533,-1.00534 -2.24533,-2.25067 0,-1.23867 1.00533,-2.244 2.24533,-2.244 1.244,0 2.24933,1.00533 2.24933,2.244" /><!--<text
     y="409.40988"
     x="84.306854"
     transform="rotate(90)"
     style="font-variant:normal;font-weight:normal;font-size:9.54929px;font-family:'Bitstream Vera Sans';-inkscape-font-specification:BitstreamVeraSans-Roman;writing-mode:lr-tb;fill:#000000;fill-opacity:1;fill-rule:nonzero;stroke:none;stroke-width:1.33333"
     id="text13432"><tspan
       style="stroke-width:1.33333"
       x="84.306854 89.492126 94.133087 97.217499 101.95395 105.17206 110.33823 115.63809 120.82336"
       y="409.40988"
       id="tspan13416">heterodus</tspan><tspan
       style="stroke-width:1.33333"
       x="84.306702 87.391144 92.528656 99.375519 104.58942 108.58102 113.31747 118.54095 123.83127 126.17084"
       y="355.05951"
       id="tspan13418">townsendii</tspan><tspan
       style="stroke-width:1.33333"
       x="84.306854 89.492126 97.408478 102.68924 106.00287 108.34244 113.55634 118.74161"
       y="264.27203"
       id="tspan13420">umbrinus</tspan><tspan
       style="stroke-width:1.33333"
       x="84.306854 89.578064 94.581909 97.618561 100.64569 105.44901"
       y="218.84322"
       id="tspan13422">bottae</tspan><tspan
       style="stroke-width:1.33333"
       x="84.306854 87.333984 92.137268 94.553253 99.843567 105.01929 107.35886 112.64917 117.37607"
       y="88.207367"
       id="tspan13424">talpoides</tspan><tspan
       style="stroke-width:1.33333"
       x="84.306702 92.223083 97.026367 100.85565 105.65894 113.57532"
       y="13.262329"
       id="tspan13426">mazama</tspan><tspan
       style="stroke-width:1.33333"
       x="84.306854 86.646423 91.946289 96.749573 101.93484 107.11057 111.83746 117.06094 121.043 123.38257"
       y="-65.568481"
       id="tspan13428">idahoensis</tspan><tspan
       style="stroke-width:1.33333"
       x="84.306702 92.223083 97.398804 102.61273 105.84995 108.18951 112.34344 117.51917 119.93515"
       y="-97.443695"
       id="tspan13430">monticola</tspan></text>
       --></svg>
